<svg width="20" height="21" viewBox="0 0 20 21" fill="none" xmlns="http://www.w3.org/2000/svg">
<path d="M19.3206 16.4922L15.2358 13.457C14.7444 13.0914 14.062 13.1267 13.6092 13.5409L13.0927 14.0154C12.3868 14.6627 11.3085 14.6879 10.5774 14.0691C10.009 13.5878 9.28457 12.9137 8.4411 11.9998C7.59764 11.0859 6.98558 10.3078 6.55295 9.7024C5.99623 8.92264 6.10858 7.84941 6.81119 7.19877L7.32599 6.72253C7.77539 6.30665 7.86761 5.62918 7.5423 5.10934L4.85093 0.791282C4.29421 -0.102513 3.06171 -0.268528 2.287 0.444161L2.2652 0.464284C-0.501632 3.00649 -1.97895 6.83991 5.37914 14.8237C12.7372 22.8075 16.6762 21.6487 19.4346 19.0982L19.4564 19.078C20.2312 18.3637 20.1658 17.1228 19.3206 16.4939V16.4922Z" fill="#242424"/>
</svg>
